# xmcd
#
# Track frame offsets:
#	150
#	38179
#	68313
#	103135
#	125064
#	165640
#	216312
#	246024
#	280366
#
# Disc length: 4015 seconds
#
# Revision: 0
# Processed by: cddbd v1.5.2PL0 Copyright (c) Steve Scherf et al.
# Submitted via: audiograbber 1.83.01
#
DISCID=820fad09
DTITLE=Grateful Dead - 92-06-20 Robert F Kennedy Stadium, Washington DC
DYEAR=1900
DGENRE=
TTITLE0=Cold Rain and Snow
TTITLE1=Wang Dang Doodle
TTITLE2=Friend Of The Devil
TTITLE3=Mexicali Blues
TTITLE4=Maggie's Farm
TTITLE5=Row Jimmy
TTITLE6=Picasso Moon
TTITLE7=Tennessee Jed
TTITLE8=Promised Land
EXTD=
EXTT0=
EXTT1=
EXTT2=
EXTT3=
EXTT4=
EXTT5=
EXTT6=
EXTT7=
EXTT8=
PLAYORDER=
